<?xml version="1.0" encoding="UTF-8" standalone="no"?>
<!DOCTYPE svg PUBLIC "-//W3C//DTD SVG 1.1//EN" "http://www.w3.org/Graphics/SVG/1.1/DTD/svg11.dtd">
<!-- Created with Vectornator (http://vectornator.io/) -->
<svg height="1024.0px" stroke-miterlimit="10" style="fill-rule:nonzero;clip-rule:evenodd;stroke-linecap:round;stroke-linejoin:round;" version="1.1" viewBox="0 0 1024 1024" width="1024.0px" xml:space="preserve" xmlns="http://www.w3.org/2000/svg" xmlns:xlink="http://www.w3.org/1999/xlink">
<defs/>
<g id="图层-1">
<path d="M350.247 558.426L672.344 560.601C672.344 560.601 674.146 592.688 684.543 641.693C694.94 690.698 742.207 855.963 742.207 855.963C742.207 855.963 611.968 870.118 486.242 871.794C360.516 873.47 281.793 852.62 281.793 852.62C281.793 852.62 317.483 713.275 336.274 640.137C347.591 596.084 350.247 558.426 350.247 558.426Z" fill="#24252c" fill-rule="nonzero" opacity="1" stroke="none"/>
<path d="M374.701 208.998L476.092 152.876C476.092 152.876 496.283 157.336 520.025 157.144C543.767 156.953 571.059 152.11 571.059 152.11L653.795 199.412L742.207 338.4C742.207 338.4 725.979 346.138 704.254 364.403C682.528 382.668 655.305 411.46 655.305 411.46L664.855 323.042L671.612 558.426L352.911 558.256L365.892 312.7L378.307 425.313C378.307 425.313 351.058 394.263 326.929 373.183C302.801 352.102 281.793 340.991 281.793 340.991L374.701 208.998Z" fill="#f0f0f0" fill-rule="nonzero" opacity="1" stroke="none"/>
<path d="M375.783 208.364L475.755 152.11C475.755 152.11 475.016 155.474 474.703 160.82C474.398 166.031 474.498 173.124 476.08 180.821C477.843 189.392 484.648 221.401 493.907 247.132C501.494 268.214 512 284.583 512 284.583C512 284.583 553.412 213.697 561.532 188.404C565.652 175.568 568.061 168.329 567.817 162.391C567.396 152.11 568.368 152.11 568.368 152.11L652.023 196.78C652.023 196.78 646.722 197.185 642.1 200.513C634.616 205.903 625.516 215.792 618.237 220.385C605.208 228.608 582.191 253.534 565.378 259.401C550.439 264.614 512 285.143 512 285.143L512 282.302C512 282.302 477.708 279.79 454.261 252.684C434.801 230.187 404.034 214.233 391.113 210.032C386.657 208.582 375.783 208.364 375.783 208.364Z" fill="#24252c" fill-rule="nonzero" opacity="1" stroke="none"/>
<path d="M473.151 275.278L514.101 278.992L558.302 274.348C558.302 274.348 560.547 284.043 557.96 293.655C555.373 303.268 547.954 312.797 547.954 312.797L519.58 284.252L534.695 297.047L558.302 329.965C558.302 329.965 546.841 337.622 536.282 341.99C525.724 346.357 517.051 360.493 517.051 360.493L514.007 303.364L509.249 360.493C509.249 360.493 496.288 348.967 485.478 344.574C474.667 340.181 464.794 329.965 464.794 329.965L490.009 299.214L506.344 284.183L477.995 313.046C477.995 313.046 472.613 302.51 471.402 293.068C470.191 283.626 473.151 275.278 473.151 275.278Z" fill="#7a2027" fill-rule="nonzero" opacity="1" stroke="none"/>
</g>
</svg>
