<?xml version="1.0" encoding="UTF-8" standalone="no"?>
<!DOCTYPE svg PUBLIC "-//W3C//DTD SVG 1.1//EN" "http://www.w3.org/Graphics/SVG/1.1/DTD/svg11.dtd">
<!-- Created with Vectornator (http://vectornator.io/) -->
<svg height="1024.0px" stroke-miterlimit="10" style="fill-rule:nonzero;clip-rule:evenodd;stroke-linecap:round;stroke-linejoin:round;" version="1.1" viewBox="0 0 1024 1024" width="1024.0px" xml:space="preserve" xmlns="http://www.w3.org/2000/svg" xmlns:xlink="http://www.w3.org/1999/xlink">
<defs/>
<g id="图层-1">
<g opacity="1">
<path d="M264.84 151.248C294.459 158.447 478.851 269.973 529.853 269.652C580.854 269.331 727.741 170.298 759.652 155.096C791.563 139.894 832.485 195.89 815.69 261.729C798.895 327.567 837.506 355.129 829.033 367.088C820.56 379.046 763.368 368.999 698.696 353.527C640.948 339.712 583.991 307.875 575.282 314.597C556.819 328.847 607.41 367.298 672.031 436.401C749.076 518.789 849.384 614.425 852.652 645.295C858.662 702.058 771.364 693.597 696.24 724.672C621.115 755.746 618.409 933.297 576.813 846.528C535.216 759.76 560.109 377.275 529.853 377.599C499.596 377.924 508.002 758.176 455.786 847.827C403.57 937.478 397.908 767.464 320.99 736.205C244.071 704.946 151.46 621.19 174.694 572.675C197.929 524.159 331.4 656.3 405.309 574.864C479.218 493.427 493.96 316.639 477.394 312.207C460.828 307.774 413.188 336.485 343.221 349.797C273.255 363.11 191.499 335.397 188.072 313.306C184.645 291.215 217.546 314.48 208.929 247.298C200.312 180.116 235.221 144.049 264.84 151.248Z" fill="#7a2027" fill-rule="nonzero" opacity="1" stroke="none"/>
<path d="M216.877 233.245C216.877 233.245 228.467 250.345 249.999 264.956C265.957 275.784 289.261 283.485 307.464 291.068C350.228 308.884 380.64 302.82 380.64 302.82C380.64 302.82 299.854 315.467 256.875 298.178C235.95 289.76 199.184 304.797 201.52 302.015C205.206 297.623 228.521 279.048 225.783 271.914C218.344 252.534 216.877 233.245 216.877 233.245Z" fill="#5b161c" fill-rule="nonzero" opacity="1" stroke="none"/>
<path d="M788.665 698.585C788.665 698.585 822.375 684.499 835.95 667.323C849.525 650.146 845.266 629.02 845.266 629.02C845.266 629.02 855.006 640.985 852.027 657.587C850.68 665.094 848.958 667.745 844.081 673.917C838.815 680.579 825.481 687.338 816.789 690.506C803.072 695.506 788.665 698.585 788.665 698.585Z" fill="#5b161c" fill-rule="nonzero" opacity="1" stroke="none"/>
<path d="M741.355 362.565C741.355 362.565 820.118 360.493 821.432 352.373C822.746 344.252 816.291 328.7 816.291 328.7C816.291 328.7 825.754 349.148 829.731 360.552C830.769 363.53 829.724 365.554 829.22 366.234C826.829 369.459 822.708 371.379 810.939 371.974C796.054 372.727 741.355 362.565 741.355 362.565Z" fill="#5b161c" fill-rule="nonzero" opacity="1" stroke="none"/>
<path d="M309.958 332.217C358.255 334.222 405.935 324.437 436.153 317.813C454.848 313.715 467.525 311.756 467.525 311.756C467.525 311.756 456.458 314.856 441.059 320.288C420.654 327.485 391.768 338.2 362.358 345.555C341.951 350.66 321.516 352.5 305.089 353.072C247.12 355.09 204.368 330.451 204.368 330.451C204.368 330.451 189.834 321.479 187.874 312.364C186.918 307.913 263.339 330.281 309.958 332.217Z" fill="#5b161c" fill-rule="nonzero" opacity="1" stroke="none"/>
<path d="M474.06 795.328C474.06 795.328 467.625 824.904 455.755 846.958C446.762 863.667 434.87 875.679 426.19 871.988C424.372 871.214 420.748 870.61 417.07 867.201C413.441 863.837 409.771 857.705 405.867 851.509C399.786 841.856 395.33 827.817 387.867 814.654C381.697 803.773 375.055 791.684 368.25 780.188C364.053 773.1 359.914 766.311 354.638 760.064C351.478 756.323 344.999 750.139 336.404 743.686C329.067 738.178 320.594 735.761 311.621 731.573C296.181 724.367 280.68 715.059 276.487 712.599C262.955 704.66 255.357 699.372 257.13 698.653C260.607 697.241 318.263 718.032 369.373 747.811C378.033 752.858 319.706 682.96 327.695 688.459C333.86 692.701 406.536 772.26 411.989 776.704C421.418 784.387 440.4 807.712 450.939 810.478C468.214 815.011 474.06 795.328 474.06 795.328Z" fill="#5b161c" fill-rule="nonzero" opacity="1" stroke="none"/>
<path d="M562.245 785.621C562.245 785.621 558.56 741.816 554.895 675.365C548.68 562.686 543.875 400.372 543.875 400.372C543.875 400.372 555.238 469.729 596.386 534.24C632.14 590.293 688.573 638.323 711.825 675.491C719.771 688.192 617.284 577.169 622.84 591.021C652.212 664.262 677.713 731.895 674.08 737.447C667.41 747.639 647.669 771.706 637.777 794.602C620.506 834.578 605.16 872.669 596.86 870.34C588.986 868.131 577.713 846.879 570.919 825.792C564.436 805.67 562.245 785.621 562.245 785.621Z" fill="#5b161c" fill-rule="nonzero" opacity="1" stroke="none"/>
<path d="M462.388 264.966C473.909 265.227 493.989 272.379 507.598 277.782C515.95 281.098 516.484 281.54 526.348 283.069C532.693 284.053 561.876 271.301 575.845 267.476C583.596 265.354 583.112 272.431 582.25 277.944C579.227 297.288 546.132 278.283 537.691 287.698C535.093 290.595 561.093 331.933 562.245 335.752C564.685 343.837 550.82 316.826 542.286 311.756C538.449 309.478 542.533 336.568 538.834 332.473C535.394 328.664 534.884 296.671 532.688 297.111C526.761 298.296 516.21 356.892 512 369.886C506.177 387.859 507.604 360.588 506.327 350.885C505.558 345.046 513.215 317.138 508.313 307.599C501.256 293.865 454.533 295.443 454.533 295.443C454.533 295.443 519.129 294.164 512 288.708C509.531 286.818 503.245 286.748 483.314 284.899C462.138 282.935 453.558 283.982 447.497 282.068C432.628 277.37 443.796 264.544 462.388 264.966Z" fill="#5b161c" fill-rule="nonzero" opacity="1" stroke="none"/>
<path d="M316.58 600.987C316.58 600.987 330.912 602.715 343.369 603.06C352.96 603.326 360.769 601.329 369.751 598.817C378.98 596.236 388.636 592.05 393.042 587.681C399.819 580.962 404.161 575.554 408.776 578.876C427.52 592.368 427.044 598.135 422.397 601.647C420.953 602.739 407.105 605.061 392.983 606.48C389.04 606.877 319.998 619.858 315.662 620.096C310.762 620.364 373.615 607.72 368.565 607.676C342.583 607.455 316.58 600.987 316.58 600.987Z" fill="#5b161c" fill-rule="nonzero" opacity="1" stroke="none"/>
<path d="M724.208 307.282C687.044 323.331 648.796 293.236 653.73 286.844C658.665 280.452 704.362 288.343 743.945 281.715C783.527 275.086 812.061 260.331 812.061 260.331C812.061 260.331 761.373 291.233 724.208 307.282Z" fill="#5b161c" fill-rule="nonzero" opacity="1" stroke="none"/>
</g>
</g>
</svg>
